<svg xmlns="http://www.w3.org/2000/svg" viewBox="0 0 368.62 155"><defs><style>.cls-1{fill:#1c998b;}.cls-2{fill:#ea4c24;}</style></defs><g id="Layer_2" data-name="Layer 2"><g id="Layer_1-2" data-name="Layer 1"><path class="cls-1" d="M62,119.65V155l62-35.81V83.85Z"/><path class="cls-1" d="M89.76,51.38,120.35,33.7,62,0V35.35Z"/><path class="cls-2" d="M37.91,61.93V97.29L62,111.21V75.86Z"/><path class="cls-2" d="M124,40,62,75.86v35.35L124,75.4Z"/><path class="cls-1" d="M3.69,33.68,34.1,51.46,62,35.35V0Z"/><path class="cls-1" d="M30.6,101.52V57.69L0,40v79.17L62,155V119.65Z"/><path class="cls-1" d="M158.5,89V69.69q0-7.12-4.22-7.13a4.78,4.78,0,0,0-4.44,2.53q-1.4,2.5-1.4,8.35V89H136.22V40.38h12.22v6.9q0,4.69-.5,10.69h.56a10.07,10.07,0,0,1,4.16-3.88A13,13,0,0,1,158.25,53q5.94,0,9.22,3.44T170.78,66V89Zm39.27,0H185.56V53.59h12.21ZM185.24,44.78a5.15,5.15,0,0,1,1.53-4.09c1-.9,2.67-1.35,4.94-1.35s3.93.46,5,1.38a5.13,5.13,0,0,1,1.56,4.06c0,3.58-2.17,5.38-6.53,5.38S185.24,48.36,185.24,44.78ZM234.08,53a17.37,17.37,0,0,1,3,.25l.69.12-1.09,11.54a17.43,17.43,0,0,0-4.16-.38c-2.67,0-4.6.61-5.81,1.84a7.11,7.11,0,0,0-1.81,5.25V89H212.71V53.59h9.09l1.91,5.66h.59a12.16,12.16,0,0,1,4.25-4.53A10.19,10.19,0,0,1,234.08,53Zm32.18,36.65q-8.83,0-13.75-4.68t-4.87-13.41q0-9,4.53-13.75T265.11,53q8,0,12.34,4.19t4.38,12v5.43H260a6.1,6.1,0,0,0,2.16,4.66,8.53,8.53,0,0,0,5.59,1.69,27.12,27.12,0,0,0,5.91-.6,29.42,29.42,0,0,0,5.87-2.09V87a21.26,21.26,0,0,1-5.93,2A40.75,40.75,0,0,1,266.26,89.62Zm-.72-28.34a5.09,5.09,0,0,0-3.62,1.38,6.35,6.35,0,0,0-1.69,4.25h10.5a6,6,0,0,0-1.47-4.1A4.73,4.73,0,0,0,265.54,61.28ZM330.44,89H318.22V53.59h12.22ZM317.91,44.78a5.15,5.15,0,0,1,1.53-4.09c1-.9,2.66-1.35,4.94-1.35s3.92.46,5,1.38a5.1,5.1,0,0,1,1.57,4.06c0,3.58-2.18,5.38-6.53,5.38S317.91,48.36,317.91,44.78ZM362.71,80a18.23,18.23,0,0,0,5.91-1.22v8.91a24.37,24.37,0,0,1-4.72,1.5,25.76,25.76,0,0,1-5.22.46q-6.15,0-8.87-3t-2.72-9.28V62.75h-4.28v-5l5.43-3.84,3.16-7.44h8v7.09h8.69v9.16H359.4V76.53Q359.4,80,362.71,80Z"/><path class="cls-2" d="M215.08,121.19a7.86,7.86,0,0,1-5.81-2.09,7.7,7.7,0,0,1-2.05-5.59,11.43,11.43,0,0,1,1.21-5.39,9.12,9.12,0,0,1,3.16-3.57,7.32,7.32,0,0,1,4.06-1.26,4.14,4.14,0,0,1,3.23,1.26,4.32,4.32,0,0,1,1.18,3.15,4.86,4.86,0,0,1-.72,2.7,2.09,2.09,0,0,1-1.83,1.1,1.87,1.87,0,0,1-1.17-.34,1.17,1.17,0,0,1-.42-1,2.85,2.85,0,0,1,.07-.61c0-.23.09-.39.12-.49a3.32,3.32,0,0,0,.19-1.07,1,1,0,0,0-.27-.76.87.87,0,0,0-.68-.26,2.24,2.24,0,0,0-1.64.79,5.47,5.47,0,0,0-1.21,2.09,8.87,8.87,0,0,0-.46,2.93q0,4.41,3.84,4.41a6.7,6.7,0,0,0,3.34-1,14,14,0,0,0,3.58-3.15,1.3,1.3,0,0,1,1-.53.84.84,0,0,1,.76.45,2.2,2.2,0,0,1,.31,1.26,3.63,3.63,0,0,1-.73,2.35,12.46,12.46,0,0,1-4.29,3.42A11,11,0,0,1,215.08,121.19Zm14.84,0a4.64,4.64,0,0,1-3.77-1.71,6.86,6.86,0,0,1-1.4-4.48,12.33,12.33,0,0,1,1.4-5.74,11.82,11.82,0,0,1,3.73-4.37,8.42,8.42,0,0,1,5-1.67,1.36,1.36,0,0,1,1.1.34,2.35,2.35,0,0,1,.49,1.14,9.13,9.13,0,0,1,1.68-.15c1.24,0,1.86.44,1.86,1.33a28.53,28.53,0,0,1-.57,3.8,36.23,36.23,0,0,0-.88,6.08,1.43,1.43,0,0,0,.27.91,1,1,0,0,0,.76.34,2.92,2.92,0,0,0,1.75-.91,36.57,36.57,0,0,0,2.77-3,1.33,1.33,0,0,1,1-.53.84.84,0,0,1,.76.45,2.28,2.28,0,0,1,.3,1.26,3.48,3.48,0,0,1-.72,2.35,19.25,19.25,0,0,1-3.31,3.27,5.6,5.6,0,0,1-3.38,1.33,3.66,3.66,0,0,1-2.32-.84A5.36,5.36,0,0,1,234.9,118Q232.92,121.2,229.92,121.19Zm1.37-3.84a2.09,2.09,0,0,0,1.59-1,6.2,6.2,0,0,0,1.1-2.62l1.41-7a4.61,4.61,0,0,0-3,1.22,7.91,7.91,0,0,0-2.13,3,10.09,10.09,0,0,0-.8,4,2.73,2.73,0,0,0,.46,1.75A1.65,1.65,0,0,0,231.29,117.35Zm18.3,3.84a2.11,2.11,0,0,1-2.05-1.52,15,15,0,0,1-.57-4.86,30.84,30.84,0,0,1,1.41-9.39,2.74,2.74,0,0,1,1.1-1.6,4,4,0,0,1,2.2-.53,2.18,2.18,0,0,1,1.06.19.78.78,0,0,1,.31.72,14.45,14.45,0,0,1-.57,2.74c-.25,1-.46,1.9-.61,2.66a27.58,27.58,0,0,0-.38,2.81,21.71,21.71,0,0,1,2.81-5.32,11.19,11.19,0,0,1,3-2.92,5.63,5.63,0,0,1,2.78-.88,2.18,2.18,0,0,1,2.47,2.47,30.34,30.34,0,0,1-.84,5.36,26.36,26.36,0,0,0-.72,4.37c0,1,.37,1.52,1.1,1.52a2.92,2.92,0,0,0,1.79-.91,32.57,32.57,0,0,0,2.81-3,1.32,1.32,0,0,1,1-.53.85.85,0,0,1,.76.45,2.28,2.28,0,0,1,.3,1.26,3.48,3.48,0,0,1-.72,2.35,16.61,16.61,0,0,1-3.54,3.31,7.28,7.28,0,0,1-4.25,1.29,3.76,3.76,0,0,1-2.93-1.1,4.84,4.84,0,0,1-1-3.27,24.15,24.15,0,0,1,.53-3.8,19.86,19.86,0,0,0,.5-3.31q0-.6-.42-.6c-.33,0-.8.43-1.4,1.29a20.5,20.5,0,0,0-1.83,3.34,27.51,27.51,0,0,0-1.48,4.41,5.91,5.91,0,0,1-1,2.43A2.13,2.13,0,0,1,249.59,121.19Zm24.63,0a4.61,4.61,0,0,1-3.76-1.71,6.81,6.81,0,0,1-1.41-4.48,12.22,12.22,0,0,1,1.41-5.74,11.8,11.8,0,0,1,3.72-4.37,8.42,8.42,0,0,1,5-1.67,1.35,1.35,0,0,1,1.1.34,2.35,2.35,0,0,1,.49,1.14,9.13,9.13,0,0,1,1.68-.15c1.24,0,1.86.44,1.86,1.33a28.53,28.53,0,0,1-.57,3.8,37.35,37.35,0,0,0-.88,6.08,1.43,1.43,0,0,0,.27.91,1,1,0,0,0,.76.34,2.92,2.92,0,0,0,1.75-.91,36.57,36.57,0,0,0,2.77-3,1.33,1.33,0,0,1,1-.53.84.84,0,0,1,.76.45,2.28,2.28,0,0,1,.3,1.26,3.48,3.48,0,0,1-.72,2.35,19.25,19.25,0,0,1-3.31,3.27,5.6,5.6,0,0,1-3.38,1.33,3.68,3.68,0,0,1-2.32-.84A5.36,5.36,0,0,1,279.2,118Q277.22,121.2,274.22,121.19Zm1.37-3.84a2.08,2.08,0,0,0,1.59-1,6.2,6.2,0,0,0,1.1-2.62l1.41-7a4.63,4.63,0,0,0-3,1.22,7.91,7.91,0,0,0-2.13,3,10.27,10.27,0,0,0-.8,4,2.73,2.73,0,0,0,.46,1.75A1.67,1.67,0,0,0,275.59,117.35Zm37.19-4.82a.84.84,0,0,1,.76.45,2.28,2.28,0,0,1,.3,1.26,3.48,3.48,0,0,1-.72,2.35,18.8,18.8,0,0,1-3.42,3.27,6.31,6.31,0,0,1-3.69,1.33q-2.88,0-4.4-3.38a10.82,10.82,0,0,1-2.82,2.7,5.47,5.47,0,0,1-2.77.68,4.94,4.94,0,0,1-3.84-1.71A6.72,6.72,0,0,1,290.7,115a12.45,12.45,0,0,1,1.29-5.63,11.4,11.4,0,0,1,3.54-4.25,10.34,10.34,0,0,1,5.09-2,48.18,48.18,0,0,1,2.73-12.58q2.06-5.23,5.36-5.24a3.2,3.2,0,0,1,2.7,1.48,7.54,7.54,0,0,1,1.1,4.49,29.41,29.41,0,0,1-2.09,10,74,74,0,0,1-5.58,11.71,8.56,8.56,0,0,0,.64,3.15,1.56,1.56,0,0,0,1.33,1,3.22,3.22,0,0,0,2.09-.91,27.66,27.66,0,0,0,2.85-3A1.33,1.33,0,0,1,312.78,112.53ZM308.29,89c-.48,0-1,.87-1.44,2.59a47.06,47.06,0,0,0-1.25,6.69q-.5,4.14-.73,8.66,4.26-9.27,4.26-14.9a7.28,7.28,0,0,0-.27-2.24C308.71,89.27,308.52,89,308.29,89Zm-10.94,28.35a2.32,2.32,0,0,0,1.44-.57,12,12,0,0,0,1.83-2.2,24.8,24.8,0,0,1-.38-4.6c0-.61,0-1.6.07-3a6.4,6.4,0,0,0-3.49,2.81,8.62,8.62,0,0,0-1.37,4.75C295.45,116.43,296.08,117.35,297.35,117.35Zm21.2,3.84a4.32,4.32,0,0,1-3.53-1.71,7.07,7.07,0,0,1-1.34-4.48,12.22,12.22,0,0,1,1.41-5.74,11.82,11.82,0,0,1,3.73-4.37,8.42,8.42,0,0,1,5-1.67c.56,0,.93.11,1.1.34a2.34,2.34,0,0,1,.5,1.14,7.81,7.81,0,0,1,1.59-.15,2,2,0,0,1,1.41.45,1.69,1.69,0,0,1,.5,1.29,21,21,0,0,1-.38,3c-.28,1.55-.5,3-.65,4.45a44.18,44.18,0,0,0-.23,4.71,3,3,0,0,1-.61,2.09,2.49,2.49,0,0,1-1.9.61,2.74,2.74,0,0,1-1.94-.61,2.94,2.94,0,0,1-.6-2l0-.61Q321.44,121.19,318.55,121.19Zm1.48-3.84c.71,0,1.36-.49,1.94-1.48a17.73,17.73,0,0,0,1.56-5.28l.72-3.84a4.46,4.46,0,0,0-2.89,1.22,8.13,8.13,0,0,0-2.13,3,10.27,10.27,0,0,0-.8,4,3.14,3.14,0,0,0,.42,1.75A1.45,1.45,0,0,0,320,117.35Z"/></g></g></svg>